<?xml version="1.0" encoding="utf-8"?>
<!-- Generator: Adobe Illustrator 18.1.1, SVG Export Plug-In . SVG Version: 6.00 Build 0)  -->
<svg version="1.1" id="Layer_1" xmlns="http://www.w3.org/2000/svg" xmlns:xlink="http://www.w3.org/1999/xlink" x="0px" y="0px"
	 width="256px" height="256px" viewBox="0 0 256 256" style="enable-background:new 0 0 256 256;" xml:space="preserve">
<style type="text/css">
	.st0{fill:#3B3A33;}
</style>
<g>
	<path class="st0" d="M42.3,107.1l0.3-0.3c0.4-1.5,1.1-6.5-3.8-11.2C34,91,28.3,90.8,26.5,90.9L26.5,91c0,1.7,0.3,7.3,4.9,12.1
		C36.1,108,40.9,107.4,42.3,107.1z"/>
	<path class="st0" d="M139.6,165.4c3.4-3.5,3.6-7.5,3.5-8.8l0,0c-1.2-0.1-5.4,0.1-8.9,3.4c-0.6,0.6-1.1,1.2-1.5,1.8v-13.1
		c3,2.6,6.8,4.2,11.1,4.2h45.3c6,0,11.2-3.1,14.2-7.8h9.9c9.3,0,16.9-7.6,16.9-16.9v-15.7c1.6,0.1,4.3-0.3,6.9-3
		c3.4-3.5,3.6-7.6,3.6-8.8l0,0c-1.3-0.1-5.4,0.1-8.9,3.5c-0.6,0.6-1.1,1.2-1.5,1.8v-1c0-1.6-1.3-2.9-2.9-2.9c-1.6,0-2.9,1.3-2.9,2.9
		V117c-0.1-0.1-0.2-0.2-0.2-0.2c-3.5-3.4-7.7-3.5-8.9-3.5l0,0.1c0,1.2,0.2,5.3,3.6,8.8c2,2.1,4.1,2.8,5.6,3v3.1
		c0,6.1-5,11.1-11.1,11.1h-7.5c0.2-0.8,0.3-1.7,0.3-2.6c0.2-1.3,0.3-4.2-2.6-6.9c-3.2-3-6.9-3.1-8-3.1l0,0c0,1.1,0.2,4.8,3.2,7.9
		c0.5,0.6,1.1,1,1.6,1.4c0,0,0,0,0,0c0,6.1-5,11.1-11.1,11.1h-10.7c2.6-3,4.1-6.8,4.1-11.1v-22.2c2,0.2,6.1,0,10-4.1
		c4.7-4.8,4.9-10.4,4.9-12.1l-0.1-0.1c-1.7-0.1-7.5,0.1-12.3,4.8c-1.2,1.1-2,2.3-2.6,3.4V88.8c0-0.1,0-0.3,0-0.4c0,0,0-0.2,0-0.4
		c1.1,0.2,4.1,0.4,7-2.6c3-3.1,3.2-6.8,3.2-7.9l0,0c-1.1,0-4.9,0.1-8,3.1c-1,0.9-1.6,1.9-2,2.8c0.3-2.2,1.1-4.7,2.8-6.7
		c2.3-2.6,5.8-3.9,10.6-3.9c1.6,0,2.9-1.3,2.9-2.9c0-1.6-1.3-2.9-2.9-2.9c-6.6,0-11.6,2-15,5.9c-5.3,6.1-4.5,14.7-4.3,16.2v7.9
		c-0.6-1.4-1.6-2.9-3.1-4.3c-4.8-4.7-10.6-4.8-12.3-4.8l-0.1,0.1c0,1.7,0.3,7.3,4.9,12.2c4.3,4.4,8.7,4.3,10.5,4.1v16
		c-0.7-1.1-1.6-2.3-2.8-3.5c-6-5.8-13.1-6-15.3-5.9l-0.1,0.1c0,2.1,0.3,9.1,6.1,15.1c4.7,4.8,9.4,5.3,12.1,5.2v5
		c0,6.1-5,11.1-11.1,11.1h-21.9c-5.9,0-10.7-4.6-11-10.4l0.1,0.1c1.1,0.2,4.5,0.6,7.9-2.9c3.4-3.5,3.6-7.5,3.5-8.8l-0.1,0
		c-1.2-0.1-5.4,0.1-8.9,3.4c-1.6,1.5-2.4,3.1-2.7,4.5v-10c0.3,0.1,0.7,0.2,1.1,0.2c9.3,0,16.9-7.6,16.9-16.9V91.5
		c1.5,0.1,4.4-0.1,7.2-3c3.4-3.5,3.6-7.5,3.5-8.8l0,0c-1.2-0.1-5.4,0.1-8.9,3.4c-0.8,0.8-1.4,1.6-1.8,2.3V59.7
		c1.5,0.3,6.3,0.8,10.9-4c4.7-4.8,4.9-10.4,4.9-12.1l-0.1-0.1c-1.7-0.1-7.5,0.1-12.3,4.8c-1.8,1.8-2.9,3.6-3.4,5.2v-16
		c0-1.6-1.3-2.9-2.9-2.9c-1.1,0-2.1,0.6-2.6,1.6c-0.5-2.4-1.8-5.3-4.7-8.1c-6-5.8-13.1-6-15.3-5.9l-0.1,0.1c0,2.1,0.3,9.1,6.1,15.1
		c5.8,6,11.8,5.3,13.6,5l0,0v21.6c-0.6-1.4-1.6-2.9-3.1-4.3c-4.8-4.7-10.6-4.8-12.3-4.8l-0.1,0.1c0,1.7,0.3,7.3,4.9,12.1
		c4.3,4.5,8.7,4.4,10.5,4.1v35.3c0,6.1-5,11.1-11.1,11.1c-0.4,0-0.7,0.1-1.1,0.2v-4.9c0,0,0,0,0-0.1V104l0,0c1,0.2,4.1,0.5,7.1-2.6
		c3-3.1,3.2-6.8,3.2-7.9l0,0c-1.1,0-4.8,0.1-8,3.1c-1.3,1.2-2,2.5-2.3,3.6V82.6c0-9.3-7.6-16.9-16.9-16.9h-3.1
		c-0.1-1.6-0.6-3.8-2.9-6c-3.4-3.3-7.5-3.4-8.7-3.4l0,0c0,1.2,0.2,5.2,3.5,8.6c0.2,0.3,0.5,0.5,0.7,0.7h-9.8
		c-0.5-2.5-1.8-5.5-4.8-8.5c-6-5.8-13.1-6-15.3-5.9l-0.1,0.1c0,2.1,0.3,9.1,6.1,15.1c5.4,5.6,11,5.4,13.2,5h21.1
		c6.1,0,11.1,5,11.1,11.1v8.3c-0.7-2-2-4.3-4.3-6.5c-6-5.8-13.1-6-15.3-5.9l-0.1,0.1c0,2.1,0.3,9.1,6.1,15.1
		c5.7,5.9,11.6,5.4,13.5,5v28.1c0,0,0,0,0,0v9.2c-0.6-1.3-1.6-2.7-3-4.1c-4.8-4.7-10.6-4.8-12.3-4.8l-0.1,0.1
		c0,1.7,0.3,7.3,4.9,12.2c4.2,4.4,8.5,4.4,10.4,4.1v6.7c0,6.1-5,11.1-11.1,11.1h-10.3c2.6-3,4.1-6.8,4.1-11.1v-36.4
		c1.4,0.2,4.3,0.1,7.2-2.9c3.3-3.4,3.5-7.3,3.4-8.5l0,0c-1.2,0-5.2,0.1-8.6,3.3c-0.9,0.9-1.6,1.8-2,2.7v-5.5c0-9-7.1-16.4-16-16.9
		c-0.4-0.9-1.1-2-2.1-2.9c-3.4-3.3-7.5-3.4-8.7-3.4l0,0c0,1.2,0.2,5.2,3.5,8.6c1.6,1.7,3.2,2.4,4.6,2.7c0.5,0.4,1.2,0.7,1.9,0.7
		c6.1,0,11.1,5,11.1,11.1V119c-0.6-1.3-1.5-2.6-2.9-3.9c-4.8-4.7-10.6-4.8-12.3-4.8l-0.1,0.1c0,1.7,0.3,7.3,4.9,12.1
		c4.2,4.3,8.4,4.4,10.3,4.1v16.6c-0.6-1.8-1.8-3.9-3.9-5.8c-5.5-5.3-11.9-5.5-13.9-5.4l-0.1,0.1c0,1.9,0.3,8.3,5.6,13.7
		c5.2,5.3,10.5,4.9,12.3,4.5c-0.2,5.9-5.1,10.7-11.1,10.7h-9.7H70.1v-4.6c1.5,0.2,5.2,0.3,8.7-3.4c3.9-4,4.1-8.6,4.1-10.1l-0.1-0.1
		c-1.4-0.1-6.2,0.1-10.2,3.9c-1.2,1.2-2,2.4-2.5,3.5v-24c1.4,0.2,4.3,0.1,7.2-2.9c3.3-3.4,3.5-7.3,3.4-8.5l0,0
		c-1.2-0.1-5.2,0.1-8.6,3.3c-0.9,0.9-1.5,1.8-2,2.7c0.3-5.8,5.1-10.5,11-10.5c1.6,0,2.9-1.3,2.9-2.9c0-1.6-1.3-2.9-2.9-2.9
		c-9.3,0-16.9,7.6-16.9,16.9v9.3c-0.4-1-1.1-2-2.1-3c-3.2-3.1-7-3.2-8.1-3.1l0,0c0,1.1,0.2,4.8,3.2,8c2.9,3,5.9,2.9,7,2.7v25.6h-4.4
		c-5.3,0-9.7-3.7-10.8-8.7l0.1,0.1c1.2,0.3,5.2,0.7,9.1-3.3c3.9-4,4.1-8.6,4.1-10.1l0-0.1C60.8,139,56,139.2,52,143
		c-2.2,2.1-3,4.3-3.3,6.1v-35.8c0,0.2,0.1,0.4,0.1,0.5l0.3,0.3c1.5,0.3,6.3,0.8,11-4C64.8,105.3,65,99.7,65,98L65,97.9
		c-1.7-0.1-7.5,0.1-12.3,4.8c-2.6,2.5-3.6,5-3.9,7.1V88.1c0-1.6-1.3-2.9-2.9-2.9c-1.6,0-2.9,1.3-2.9,2.9v37.1
		c-0.8-1.7-2-3.6-3.9-5.4c-6-5.8-13.1-6-15.3-5.9l-0.1,0.1c0,2.1,0.3,9.1,6.1,15.1c5.4,5.5,10.8,5.4,13.1,5v16
		c0,4.2,1.6,8.1,4.1,11.1H33.3c-5,0-9.3-3.4-10.6-8c2,0.2,6.1,0.1,10.2-4.1c4.7-4.8,4.9-10.4,4.9-12.2l-0.1-0.1
		c-1.7-0.1-7.5,0.1-12.3,4.8c-2.4,2.3-3.4,4.7-3.8,6.7c-0.5-0.7-1.3-1.1-2.3-1.1c-0.5,0-0.9,0.1-1.3,0.3c-0.3-1.3-1-2.9-2.5-4.4
		c-3.2-3.1-7-3.2-8.1-3.1l0,0c0,1.1,0.2,4.8,3.2,8c2.2,2.3,4.4,2.7,5.9,2.8c0.4,9,7.8,16.2,16.9,16.2h26.5h4.4v1.9
		c0,0.6,0,1.1,0.1,1.7c-2.7-1.8-5.5-1.8-6.4-1.8l0,0c0,1.1,0.2,4.8,3.2,8c2.8,2.9,5.7,2.9,6.9,2.7c2.7,3.3,6.6,5.6,11.1,6.1
		c-1.5,0.3-3.4,1.2-5.2,3c-3.6,3.8-3.8,8.1-3.8,9.5l0,0.1c1.3,0.1,5.8-0.1,9.6-3.7c3.8-3.7,3.2-7.5,3-8.7l0,0h18.2
		c-0.9,0.4-1.8,1-2.7,2c-3.1,3.2-3.2,6.9-3.2,8l0,0c1.1,0,4.9-0.1,8.1-3.1c2.8-2.7,2.8-5.5,2.6-6.8c5.6,0.6,10,5.3,10,11v17.5
		c0,6.1-5,11.1-11.1,11.1c-1.6,0-2.9,1.3-2.9,2.9s1.3,2.9,2.9,2.9c9.3,0,16.9-7.6,16.9-16.9v-17.5c0-2.6-0.6-5-1.6-7.2
		c7.4-1.8,12.9-8.5,12.9-16.4v-4.8C134.3,168.5,137,168.2,139.6,165.4z M115.9,184.3c-3-2.7-7-4.4-11.3-4.4h-0.1c0,0,0,0,0,0H87.1
		c0.8-0.4,1.6-1,2.5-1.9c3-3.1,3.2-6.8,3.2-7.9l0,0c-1.1-0.1-4.8,0.1-8,3.1c-2.7,2.6-2.8,5.4-2.6,6.7h-1.1c-6.1,0-11.1-5-11.1-11.1
		v-1.9h13.1h9.7h23c4.2,0,8.1-1.6,11.1-4.1v10.4C126.9,179.3,122,184.2,115.9,184.3z"/>
	<path class="st0" d="M151,37.5c1,0.2,4.1,0.5,7.1-2.6c3-3.1,3.2-6.8,3.2-7.9l0,0c-1.1,0-4.8,0.1-8,3.1c-3.2,3-2.7,6.3-2.5,7.2
		L151,37.5z"/>
	<path class="st0" d="M245.2,135.7L245.2,135.7c-1.3-0.1-5.5,0-9,3.4c-0.5,0.5-0.9,1-1.3,1.5c-0.4-1.1-1.5-1.8-2.7-1.8
		c-1.6,0-2.9,1.3-2.9,2.9v16.9c-0.6-1.4-1.6-3-3.1-4.5c-4.8-4.6-10.5-4.8-12.2-4.7l-0.1,0.1c0,1.7,0.3,7.3,4.9,12.1
		c4.3,4.5,8.7,4.3,10.5,4c-0.3,5.9-5.1,10.6-11,10.6h-26.9c1-0.6,2-1.3,3-2.4c4.3-4.5,4.6-9.8,4.6-11.4l-0.1-0.1
		c-1.6-0.1-7,0.1-11.5,4.5c-3.7,3.6-4,7.3-3.7,9.3H171c-5.7,0-10.4-4.3-11-9.9h18.9c0.8,0,1.6-0.4,2.1-0.9c1.4-0.1,3.2-0.7,5.1-2.6
		c2.9-3,3.1-6.5,3.1-7.6l0,0c-1.1,0-4.6,0.1-7.7,3c-0.8,0.8-1.4,1.6-1.8,2.4c-0.2-0.1-0.5-0.1-0.8-0.1h-23.3
		c-9.3,0-16.9,7.6-16.9,16.9v37c0,9.3,7.6,16.9,16.9,16.9c1.6,0,2.9-1.3,2.9-2.9c0-1.6-1.3-2.9-2.9-2.9c-6.1,0-11.1-5-11.1-11.1
		v-18.9c1,0.1,2.9-0.1,4.7-2c2.2-2.3,2.4-5,2.3-5.8l0,0c-0.8,0-3.6,0-5.9,2.3c-0.5,0.5-0.9,1-1.2,1.5v-7.3c1.4,0.1,3.6-0.3,5.8-2.6
		c2.9-3,3.1-6.5,3.1-7.6l0,0c-1.1,0-4.6,0.1-7.7,3c-0.5,0.5-0.9,0.9-1.2,1.4v-1c0-5.6,4.2-10.3,9.7-11c0.7,8.7,8,15.6,16.8,15.6
		h25.4c-0.2,1.8-0.2,5.8,3.8,9.6c4.5,4.3,9.8,4.6,11.4,4.6l0.1-0.1c0.1-1.6-0.1-7-4.5-11.5c-1.2-1.2-2.4-2.1-3.6-2.7h14.6
		c9.3,0,16.9-7.6,16.9-16.9v-17.4c1.6,0,4.1-0.5,6.5-3C245,141.1,245.2,137,245.2,135.7z"/>
</g>
<g>
</g>
<g>
</g>
<g>
</g>
<g>
</g>
<g>
</g>
<g>
</g>
<g>
</g>
<g>
</g>
<g>
</g>
<g>
</g>
<g>
</g>
<g>
</g>
<g>
</g>
<g>
</g>
<g>
</g>
</svg>
